<svg class="rich-terminal" viewBox="0 0 1116 782.0" xmlns="http://www.w3.org/2000/svg">
    <!-- Generated with Rich https://www.textualize.io -->
    <style>

    @font-face {
        font-family: "Fira Code";
        src: local("FiraCode-Regular"),
                url("https://cdnjs.cloudflare.com/ajax/libs/firacode/6.2.0/woff2/FiraCode-Regular.woff2") format("woff2"),
                url("https://cdnjs.cloudflare.com/ajax/libs/firacode/6.2.0/woff/FiraCode-Regular.woff") format("woff");
        font-style: normal;
        font-weight: 400;
    }
    @font-face {
        font-family: "Fira Code";
        src: local("FiraCode-Bold"),
                url("https://cdnjs.cloudflare.com/ajax/libs/firacode/6.2.0/woff2/FiraCode-Bold.woff2") format("woff2"),
                url("https://cdnjs.cloudflare.com/ajax/libs/firacode/6.2.0/woff/FiraCode-Bold.woff") format("woff");
        font-style: bold;
        font-weight: 700;
    }

    .terminal-1442801577-matrix {
        font-family: Fira Code, monospace;
        font-size: 20px;
        line-height: 24.4px;
        font-variant-east-asian: full-width;
    }

    .terminal-1442801577-title {
        font-size: 18px;
        font-weight: bold;
        font-family: arial;
    }

    .terminal-1442801577-r1 { fill: #c5c8c6 }
.terminal-1442801577-r2 { fill: #ddedf9;font-weight: bold }
.terminal-1442801577-r3 { fill: #121212 }
.terminal-1442801577-r4 { fill: #a0a0a0 }
.terminal-1442801577-r5 { fill: #a0a0a0;font-style: italic; }
.terminal-1442801577-r6 { fill: #e0e0e0;font-weight: bold }
.terminal-1442801577-r7 { fill: #3e3e3e }
.terminal-1442801577-r8 { fill: #4ebf71 }
.terminal-1442801577-r9 { fill: #e0e0e0 }
.terminal-1442801577-r10 { fill: #000000 }
.terminal-1442801577-r11 { fill: #a5a5a5;font-style: italic; }
    </style>

    <defs>
    <clipPath id="terminal-1442801577-clip-terminal">
      <rect x="0" y="0" width="1097.0" height="731.0" />
    </clipPath>
    <clipPath id="terminal-1442801577-line-0">
    <rect x="0" y="1.5" width="1098" height="24.65"/>
            </clipPath>
<clipPath id="terminal-1442801577-line-1">
    <rect x="0" y="25.9" width="1098" height="24.65"/>
            </clipPath>
<clipPath id="terminal-1442801577-line-2">
    <rect x="0" y="50.3" width="1098" height="24.65"/>
            </clipPath>
<clipPath id="terminal-1442801577-line-3">
    <rect x="0" y="74.7" width="1098" height="24.65"/>
            </clipPath>
<clipPath id="terminal-1442801577-line-4">
    <rect x="0" y="99.1" width="1098" height="24.65"/>
            </clipPath>
<clipPath id="terminal-1442801577-line-5">
    <rect x="0" y="123.5" width="1098" height="24.65"/>
            </clipPath>
<clipPath id="terminal-1442801577-line-6">
    <rect x="0" y="147.9" width="1098" height="24.65"/>
            </clipPath>
<clipPath id="terminal-1442801577-line-7">
    <rect x="0" y="172.3" width="1098" height="24.65"/>
            </clipPath>
<clipPath id="terminal-1442801577-line-8">
    <rect x="0" y="196.7" width="1098" height="24.65"/>
            </clipPath>
<clipPath id="terminal-1442801577-line-9">
    <rect x="0" y="221.1" width="1098" height="24.65"/>
            </clipPath>
<clipPath id="terminal-1442801577-line-10">
    <rect x="0" y="245.5" width="1098" height="24.65"/>
            </clipPath>
<clipPath id="terminal-1442801577-line-11">
    <rect x="0" y="269.9" width="1098" height="24.65"/>
            </clipPath>
<clipPath id="terminal-1442801577-line-12">
    <rect x="0" y="294.3" width="1098" height="24.65"/>
            </clipPath>
<clipPath id="terminal-1442801577-line-13">
    <rect x="0" y="318.7" width="1098" height="24.65"/>
            </clipPath>
<clipPath id="terminal-1442801577-line-14">
    <rect x="0" y="343.1" width="1098" height="24.65"/>
            </clipPath>
<clipPath id="terminal-1442801577-line-15">
    <rect x="0" y="367.5" width="1098" height="24.65"/>
            </clipPath>
<clipPath id="terminal-1442801577-line-16">
    <rect x="0" y="391.9" width="1098" height="24.65"/>
            </clipPath>
<clipPath id="terminal-1442801577-line-17">
    <rect x="0" y="416.3" width="1098" height="24.65"/>
            </clipPath>
<clipPath id="terminal-1442801577-line-18">
    <rect x="0" y="440.7" width="1098" height="24.65"/>
            </clipPath>
<clipPath id="terminal-1442801577-line-19">
    <rect x="0" y="465.1" width="1098" height="24.65"/>
            </clipPath>
<clipPath id="terminal-1442801577-line-20">
    <rect x="0" y="489.5" width="1098" height="24.65"/>
            </clipPath>
<clipPath id="terminal-1442801577-line-21">
    <rect x="0" y="513.9" width="1098" height="24.65"/>
            </clipPath>
<clipPath id="terminal-1442801577-line-22">
    <rect x="0" y="538.3" width="1098" height="24.65"/>
            </clipPath>
<clipPath id="terminal-1442801577-line-23">
    <rect x="0" y="562.7" width="1098" height="24.65"/>
            </clipPath>
<clipPath id="terminal-1442801577-line-24">
    <rect x="0" y="587.1" width="1098" height="24.65"/>
            </clipPath>
<clipPath id="terminal-1442801577-line-25">
    <rect x="0" y="611.5" width="1098" height="24.65"/>
            </clipPath>
<clipPath id="terminal-1442801577-line-26">
    <rect x="0" y="635.9" width="1098" height="24.65"/>
            </clipPath>
<clipPath id="terminal-1442801577-line-27">
    <rect x="0" y="660.3" width="1098" height="24.65"/>
            </clipPath>
<clipPath id="terminal-1442801577-line-28">
    <rect x="0" y="684.7" width="1098" height="24.65"/>
            </clipPath>
    </defs>

    <rect fill="#292929" stroke="rgba(255,255,255,0.35)" stroke-width="1" x="1" y="1" width="1114" height="780" rx="8"/><text class="terminal-1442801577-title" fill="#c5c8c6" text-anchor="middle" x="557" y="27">CricLive</text>
            <g transform="translate(26,22)">
            <circle cx="0" cy="0" r="7" fill="#ff5f57"/>
            <circle cx="22" cy="0" r="7" fill="#febc2e"/>
            <circle cx="44" cy="0" r="7" fill="#28c840"/>
            </g>
        
    <g transform="translate(9, 41)" clip-path="url(#terminal-1442801577-clip-terminal)">
    <rect fill="#0178d4" x="0" y="1.5" width="12.2" height="24.65" shape-rendering="crispEdges"/><rect fill="#0178d4" x="12.2" y="1.5" width="366" height="24.65" shape-rendering="crispEdges"/><rect fill="#0178d4" x="378.2" y="1.5" width="683.2" height="24.65" shape-rendering="crispEdges"/><rect fill="#0178d4" x="1061.4" y="1.5" width="12.2" height="24.65" shape-rendering="crispEdges"/><rect fill="#003054" x="1073.6" y="1.5" width="24.4" height="24.65" shape-rendering="crispEdges"/><rect fill="#121212" x="0" y="25.9" width="12.2" height="24.65" shape-rendering="crispEdges"/><rect fill="#121212" x="12.2" y="25.9" width="12.2" height="24.65" shape-rendering="crispEdges"/><rect fill="#121212" x="24.4" y="25.9" width="36.6" height="24.65" shape-rendering="crispEdges"/><rect fill="#121212" x="61" y="25.9" width="12.2" height="24.65" shape-rendering="crispEdges"/><rect fill="#121212" x="73.2" y="25.9" width="524.6" height="24.65" shape-rendering="crispEdges"/><rect fill="#121212" x="597.8" y="25.9" width="231.8" height="24.65" shape-rendering="crispEdges"/><rect fill="#121212" x="829.6" y="25.9" width="48.8" height="24.65" shape-rendering="crispEdges"/><rect fill="#121212" x="878.4" y="25.9" width="158.6" height="24.65" shape-rendering="crispEdges"/><rect fill="#121212" x="1037" y="25.9" width="12.2" height="24.65" shape-rendering="crispEdges"/><rect fill="#121212" x="1049.2" y="25.9" width="12.2" height="24.65" shape-rendering="crispEdges"/><rect fill="#121212" x="1061.4" y="25.9" width="12.2" height="24.65" shape-rendering="crispEdges"/><rect fill="#003054" x="1073.6" y="25.9" width="24.4" height="24.65" shape-rendering="crispEdges"/><rect fill="#121212" x="0" y="50.3" width="12.2" height="24.65" shape-rendering="crispEdges"/><rect fill="#121212" x="12.2" y="50.3" width="12.2" height="24.65" shape-rendering="crispEdges"/><rect fill="#121212" x="24.4" y="50.3" width="0" height="24.65" shape-rendering="crispEdges"/><rect fill="#121212" x="24.4" y="50.3" width="48.8" height="24.65" shape-rendering="crispEdges"/><rect fill="#121212" x="73.2" y="50.3" width="36.6" height="24.65" shape-rendering="crispEdges"/><rect fill="#121212" x="109.8" y="50.3" width="36.6" height="24.65" shape-rendering="crispEdges"/><rect fill="#121212" x="146.4" y="50.3" width="12.2" height="24.65" shape-rendering="crispEdges"/><rect fill="#121212" x="158.6" y="50.3" width="890.6" height="24.65" shape-rendering="crispEdges"/><rect fill="#121212" x="1049.2" y="50.3" width="12.2" height="24.65" shape-rendering="crispEdges"/><rect fill="#121212" x="1061.4" y="50.3" width="12.2" height="24.65" shape-rendering="crispEdges"/><rect fill="#003054" x="1073.6" y="50.3" width="24.4" height="24.65" shape-rendering="crispEdges"/><rect fill="#121212" x="0" y="74.7" width="12.2" height="24.65" shape-rendering="crispEdges"/><rect fill="#121212" x="12.2" y="74.7" width="12.2" height="24.65" shape-rendering="crispEdges"/><rect fill="#121212" x="24.4" y="74.7" width="0" height="24.65" shape-rendering="crispEdges"/><rect fill="#121212" x="24.4" y="74.7" width="48.8" height="24.65" shape-rendering="crispEdges"/><rect fill="#121212" x="73.2" y="74.7" width="48.8" height="24.65" shape-rendering="crispEdges"/><rect fill="#121212" x="122" y="74.7" width="24.4" height="24.65" shape-rendering="crispEdges"/><rect fill="#121212" x="146.4" y="74.7" width="12.2" height="24.65" shape-rendering="crispEdges"/><rect fill="#121212" x="158.6" y="74.7" width="890.6" height="24.65" shape-rendering="crispEdges"/><rect fill="#121212" x="1049.2" y="74.7" width="12.2" height="24.65" shape-rendering="crispEdges"/><rect fill="#121212" x="1061.4" y="74.7" width="12.2" height="24.65" shape-rendering="crispEdges"/><rect fill="#003054" x="1073.6" y="74.7" width="24.4" height="24.65" shape-rendering="crispEdges"/><rect fill="#121212" x="0" y="99.1" width="12.2" height="24.65" shape-rendering="crispEdges"/><rect fill="#121212" x="12.2" y="99.1" width="1049.2" height="24.65" shape-rendering="crispEdges"/><rect fill="#121212" x="1061.4" y="99.1" width="12.2" height="24.65" shape-rendering="crispEdges"/><rect fill="#003054" x="1073.6" y="99.1" width="24.4" height="24.65" shape-rendering="crispEdges"/><rect fill="#121212" x="0" y="123.5" width="12.2" height="24.65" shape-rendering="crispEdges"/><rect fill="#121212" x="12.2" y="123.5" width="12.2" height="24.65" shape-rendering="crispEdges"/><rect fill="#121212" x="24.4" y="123.5" width="36.6" height="24.65" shape-rendering="crispEdges"/><rect fill="#121212" x="61" y="123.5" width="12.2" height="24.65" shape-rendering="crispEdges"/><rect fill="#121212" x="73.2" y="123.5" width="658.8" height="24.65" shape-rendering="crispEdges"/><rect fill="#121212" x="732" y="123.5" width="97.6" height="24.65" shape-rendering="crispEdges"/><rect fill="#121212" x="829.6" y="123.5" width="48.8" height="24.65" shape-rendering="crispEdges"/><rect fill="#121212" x="878.4" y="123.5" width="158.6" height="24.65" shape-rendering="crispEdges"/><rect fill="#121212" x="1037" y="123.5" width="12.2" height="24.65" shape-rendering="crispEdges"/><rect fill="#121212" x="1049.2" y="123.5" width="12.2" height="24.65" shape-rendering="crispEdges"/><rect fill="#121212" x="1061.4" y="123.5" width="12.2" height="24.65" shape-rendering="crispEdges"/><rect fill="#003054" x="1073.6" y="123.5" width="24.4" height="24.65" shape-rendering="crispEdges"/><rect fill="#121212" x="0" y="147.9" width="12.2" height="24.65" shape-rendering="crispEdges"/><rect fill="#121212" x="12.2" y="147.9" width="12.2" height="24.65" shape-rendering="crispEdges"/><rect fill="#121212" x="24.4" y="147.9" width="0" height="24.65" shape-rendering="crispEdges"/><rect fill="#121212" x="24.4" y="147.9" width="48.8" height="24.65" shape-rendering="crispEdges"/><rect fill="#121212" x="73.2" y="147.9" width="36.6" height="24.65" shape-rendering="crispEdges"/><rect fill="#121212" x="109.8" y="147.9" width="36.6" height="24.65" shape-rendering="crispEdges"/><rect fill="#121212" x="146.4" y="147.9" width="12.2" height="24.65" shape-rendering="crispEdges"/><rect fill="#121212" x="158.6" y="147.9" width="183" height="24.65" shape-rendering="crispEdges"/><rect fill="#121212" x="341.6" y="147.9" width="707.6" height="24.65" shape-rendering="crispEdges"/><rect fill="#121212" x="1049.2" y="147.9" width="12.2" height="24.65" shape-rendering="crispEdges"/><rect fill="#121212" x="1061.4" y="147.9" width="12.2" height="24.65" shape-rendering="crispEdges"/><rect fill="#003054" x="1073.6" y="147.9" width="24.4" height="24.65" shape-rendering="crispEdges"/><rect fill="#121212" x="0" y="172.3" width="12.2" height="24.65" shape-rendering="crispEdges"/><rect fill="#121212" x="12.2" y="172.3" width="12.2" height="24.65" shape-rendering="crispEdges"/><rect fill="#121212" x="24.4" y="172.3" width="0" height="24.65" shape-rendering="crispEdges"/><rect fill="#121212" x="24.4" y="172.3" width="48.8" height="24.65" shape-rendering="crispEdges"/><rect fill="#121212" x="73.2" y="172.3" width="24.4" height="24.65" shape-rendering="crispEdges"/><rect fill="#121212" x="97.6" y="172.3" width="48.8" height="24.65" shape-rendering="crispEdges"/><rect fill="#121212" x="146.4" y="172.3" width="12.2" height="24.65" shape-rendering="crispEdges"/><rect fill="#121212" x="158.6" y="172.3" width="183" height="24.65" shape-rendering="crispEdges"/><rect fill="#121212" x="341.6" y="172.3" width="707.6" height="24.65" shape-rendering="crispEdges"/><rect fill="#121212" x="1049.2" y="172.3" width="12.2" height="24.65" shape-rendering="crispEdges"/><rect fill="#121212" x="1061.4" y="172.3" width="12.2" height="24.65" shape-rendering="crispEdges"/><rect fill="#003054" x="1073.6" y="172.3" width="24.4" height="24.65" shape-rendering="crispEdges"/><rect fill="#121212" x="0" y="196.7" width="12.2" height="24.65" shape-rendering="crispEdges"/><rect fill="#121212" x="12.2" y="196.7" width="12.2" height="24.65" shape-rendering="crispEdges"/><rect fill="#121212" x="24.4" y="196.7" width="48.8" height="24.65" shape-rendering="crispEdges"/><rect fill="#121212" x="73.2" y="196.7" width="0" height="24.65" shape-rendering="crispEdges"/><rect fill="#121212" x="73.2" y="196.7" width="976" height="24.65" shape-rendering="crispEdges"/><rect fill="#121212" x="1049.2" y="196.7" width="12.2" height="24.65" shape-rendering="crispEdges"/><rect fill="#121212" x="1061.4" y="196.7" width="12.2" height="24.65" shape-rendering="crispEdges"/><rect fill="#003054" x="1073.6" y="196.7" width="24.4" height="24.65" shape-rendering="crispEdges"/><rect fill="#121212" x="0" y="221.1" width="12.2" height="24.65" shape-rendering="crispEdges"/><rect fill="#121212" x="12.2" y="221.1" width="12.2" height="24.65" shape-rendering="crispEdges"/><rect fill="#121212" x="24.4" y="221.1" width="48.8" height="24.65" shape-rendering="crispEdges"/><rect fill="#121212" x="73.2" y="221.1" width="146.4" height="24.65" shape-rendering="crispEdges"/><rect fill="#121212" x="219.6" y="221.1" width="97.6" height="24.65" shape-rendering="crispEdges"/><rect fill="#121212" x="317.2" y="221.1" width="183" height="24.65" shape-rendering="crispEdges"/><rect fill="#121212" x="500.2" y="221.1" width="549" height="24.65" shape-rendering="crispEdges"/><rect fill="#121212" x="1049.2" y="221.1" width="12.2" height="24.65" shape-rendering="crispEdges"/><rect fill="#121212" x="1061.4" y="221.1" width="12.2" height="24.65" shape-rendering="crispEdges"/><rect fill="#003054" x="1073.6" y="221.1" width="24.4" height="24.65" shape-rendering="crispEdges"/><rect fill="#121212" x="0" y="245.5" width="12.2" height="24.65" shape-rendering="crispEdges"/><rect fill="#121212" x="12.2" y="245.5" width="12.2" height="24.65" shape-rendering="crispEdges"/><rect fill="#121212" x="24.4" y="245.5" width="48.8" height="24.65" shape-rendering="crispEdges"/><rect fill="#121212" x="73.2" y="245.5" width="134.2" height="24.65" shape-rendering="crispEdges"/><rect fill="#121212" x="207.4" y="245.5" width="109.8" height="24.65" shape-rendering="crispEdges"/><rect fill="#121212" x="317.2" y="245.5" width="183" height="24.65" shape-rendering="crispEdges"/><rect fill="#121212" x="500.2" y="245.5" width="549" height="24.65" shape-rendering="crispEdges"/><rect fill="#121212" x="1049.2" y="245.5" width="12.2" height="24.65" shape-rendering="crispEdges"/><rect fill="#121212" x="1061.4" y="245.5" width="12.2" height="24.65" shape-rendering="crispEdges"/><rect fill="#003054" x="1073.6" y="245.5" width="24.4" height="24.65" shape-rendering="crispEdges"/><rect fill="#121212" x="0" y="269.9" width="12.2" height="24.65" shape-rendering="crispEdges"/><rect fill="#121212" x="12.2" y="269.9" width="12.2" height="24.65" shape-rendering="crispEdges"/><rect fill="#121212" x="24.4" y="269.9" width="48.8" height="24.65" shape-rendering="crispEdges"/><rect fill="#121212" x="73.2" y="269.9" width="0" height="24.65" shape-rendering="crispEdges"/><rect fill="#121212" x="73.2" y="269.9" width="976" height="24.65" shape-rendering="crispEdges"/><rect fill="#121212" x="1049.2" y="269.9" width="12.2" height="24.65" shape-rendering="crispEdges"/><rect fill="#121212" x="1061.4" y="269.9" width="12.2" height="24.65" shape-rendering="crispEdges"/><rect fill="#003054" x="1073.6" y="269.9" width="24.4" height="24.65" shape-rendering="crispEdges"/><rect fill="#121212" x="0" y="294.3" width="12.2" height="24.65" shape-rendering="crispEdges"/><rect fill="#121212" x="12.2" y="294.3" width="12.2" height="24.65" shape-rendering="crispEdges"/><rect fill="#121212" x="24.4" y="294.3" width="48.8" height="24.65" shape-rendering="crispEdges"/><rect fill="#121212" x="73.2" y="294.3" width="463.6" height="24.65" shape-rendering="crispEdges"/><rect fill="#121212" x="536.8" y="294.3" width="512.4" height="24.65" shape-rendering="crispEdges"/><rect fill="#121212" x="1049.2" y="294.3" width="12.2" height="24.65" shape-rendering="crispEdges"/><rect fill="#121212" x="1061.4" y="294.3" width="12.2" height="24.65" shape-rendering="crispEdges"/><rect fill="#003054" x="1073.6" y="294.3" width="24.4" height="24.65" shape-rendering="crispEdges"/><rect fill="#121212" x="0" y="318.7" width="12.2" height="24.65" shape-rendering="crispEdges"/><rect fill="#121212" x="12.2" y="318.7" width="12.2" height="24.65" shape-rendering="crispEdges"/><rect fill="#121212" x="24.4" y="318.7" width="48.8" height="24.65" shape-rendering="crispEdges"/><rect fill="#121212" x="73.2" y="318.7" width="439.2" height="24.65" shape-rendering="crispEdges"/><rect fill="#121212" x="512.4" y="318.7" width="536.8" height="24.65" shape-rendering="crispEdges"/><rect fill="#121212" x="1049.2" y="318.7" width="12.2" height="24.65" shape-rendering="crispEdges"/><rect fill="#121212" x="1061.4" y="318.7" width="12.2" height="24.65" shape-rendering="crispEdges"/><rect fill="#003054" x="1073.6" y="318.7" width="24.4" height="24.65" shape-rendering="crispEdges"/><rect fill="#121212" x="0" y="343.1" width="12.2" height="24.65" shape-rendering="crispEdges"/><rect fill="#121212" x="12.2" y="343.1" width="12.2" height="24.65" shape-rendering="crispEdges"/><rect fill="#121212" x="24.4" y="343.1" width="48.8" height="24.65" shape-rendering="crispEdges"/><rect fill="#121212" x="73.2" y="343.1" width="341.6" height="24.65" shape-rendering="crispEdges"/><rect fill="#121212" x="414.8" y="343.1" width="634.4" height="24.65" shape-rendering="crispEdges"/><rect fill="#121212" x="1049.2" y="343.1" width="12.2" height="24.65" shape-rendering="crispEdges"/><rect fill="#121212" x="1061.4" y="343.1" width="12.2" height="24.65" shape-rendering="crispEdges"/><rect fill="#003054" x="1073.6" y="343.1" width="24.4" height="24.65" shape-rendering="crispEdges"/><rect fill="#121212" x="0" y="367.5" width="12.2" height="24.65" shape-rendering="crispEdges"/><rect fill="#121212" x="12.2" y="367.5" width="12.2" height="24.65" shape-rendering="crispEdges"/><rect fill="#121212" x="24.4" y="367.5" width="48.8" height="24.65" shape-rendering="crispEdges"/><rect fill="#121212" x="73.2" y="367.5" width="0" height="24.65" shape-rendering="crispEdges"/><rect fill="#121212" x="73.2" y="367.5" width="976" height="24.65" shape-rendering="crispEdges"/><rect fill="#121212" x="1049.2" y="367.5" width="12.2" height="24.65" shape-rendering="crispEdges"/><rect fill="#121212" x="1061.4" y="367.5" width="12.2" height="24.65" shape-rendering="crispEdges"/><rect fill="#003054" x="1073.6" y="367.5" width="24.4" height="24.65" shape-rendering="crispEdges"/><rect fill="#121212" x="0" y="391.9" width="12.2" height="24.65" shape-rendering="crispEdges"/><rect fill="#121212" x="12.2" y="391.9" width="1049.2" height="24.65" shape-rendering="crispEdges"/><rect fill="#121212" x="1061.4" y="391.9" width="12.2" height="24.65" shape-rendering="crispEdges"/><rect fill="#003054" x="1073.6" y="391.9" width="24.4" height="24.65" shape-rendering="crispEdges"/><rect fill="#121212" x="0" y="416.3" width="12.2" height="24.65" shape-rendering="crispEdges"/><rect fill="#121212" x="12.2" y="416.3" width="12.2" height="24.65" shape-rendering="crispEdges"/><rect fill="#121212" x="24.4" y="416.3" width="36.6" height="24.65" shape-rendering="crispEdges"/><rect fill="#121212" x="61" y="416.3" width="12.2" height="24.65" shape-rendering="crispEdges"/><rect fill="#121212" x="73.2" y="416.3" width="573.4" height="24.65" shape-rendering="crispEdges"/><rect fill="#121212" x="646.6" y="416.3" width="183" height="24.65" shape-rendering="crispEdges"/><rect fill="#121212" x="829.6" y="416.3" width="48.8" height="24.65" shape-rendering="crispEdges"/><rect fill="#121212" x="878.4" y="416.3" width="158.6" height="24.65" shape-rendering="crispEdges"/><rect fill="#121212" x="1037" y="416.3" width="12.2" height="24.65" shape-rendering="crispEdges"/><rect fill="#121212" x="1049.2" y="416.3" width="12.2" height="24.65" shape-rendering="crispEdges"/><rect fill="#121212" x="1061.4" y="416.3" width="12.2" height="24.65" shape-rendering="crispEdges"/><rect fill="#003054" x="1073.6" y="416.3" width="24.4" height="24.65" shape-rendering="crispEdges"/><rect fill="#121212" x="0" y="440.7" width="12.2" height="24.65" shape-rendering="crispEdges"/><rect fill="#121212" x="12.2" y="440.7" width="12.2" height="24.65" shape-rendering="crispEdges"/><rect fill="#121212" x="24.4" y="440.7" width="0" height="24.65" shape-rendering="crispEdges"/><rect fill="#121212" x="24.4" y="440.7" width="48.8" height="24.65" shape-rendering="crispEdges"/><rect fill="#121212" x="73.2" y="440.7" width="48.8" height="24.65" shape-rendering="crispEdges"/><rect fill="#121212" x="122" y="440.7" width="24.4" height="24.65" shape-rendering="crispEdges"/><rect fill="#121212" x="146.4" y="440.7" width="12.2" height="24.65" shape-rendering="crispEdges"/><rect fill="#121212" x="158.6" y="440.7" width="890.6" height="24.65" shape-rendering="crispEdges"/><rect fill="#121212" x="1049.2" y="440.7" width="12.2" height="24.65" shape-rendering="crispEdges"/><rect fill="#121212" x="1061.4" y="440.7" width="12.2" height="24.65" shape-rendering="crispEdges"/><rect fill="#003054" x="1073.6" y="440.7" width="24.4" height="24.65" shape-rendering="crispEdges"/><rect fill="#121212" x="0" y="465.1" width="12.2" height="24.65" shape-rendering="crispEdges"/><rect fill="#121212" x="12.2" y="465.1" width="12.2" height="24.65" shape-rendering="crispEdges"/><rect fill="#121212" x="24.4" y="465.1" width="0" height="24.65" shape-rendering="crispEdges"/><rect fill="#121212" x="24.4" y="465.1" width="48.8" height="24.65" shape-rendering="crispEdges"/><rect fill="#121212" x="73.2" y="465.1" width="48.8" height="24.65" shape-rendering="crispEdges"/><rect fill="#121212" x="122" y="465.1" width="24.4" height="24.65" shape-rendering="crispEdges"/><rect fill="#121212" x="146.4" y="465.1" width="12.2" height="24.65" shape-rendering="crispEdges"/><rect fill="#121212" x="158.6" y="465.1" width="890.6" height="24.65" shape-rendering="crispEdges"/><rect fill="#121212" x="1049.2" y="465.1" width="12.2" height="24.65" shape-rendering="crispEdges"/><rect fill="#121212" x="1061.4" y="465.1" width="12.2" height="24.65" shape-rendering="crispEdges"/><rect fill="#003054" x="1073.6" y="465.1" width="24.4" height="24.65" shape-rendering="crispEdges"/><rect fill="#121212" x="0" y="489.5" width="12.2" height="24.65" shape-rendering="crispEdges"/><rect fill="#121212" x="12.2" y="489.5" width="1049.2" height="24.65" shape-rendering="crispEdges"/><rect fill="#121212" x="1061.4" y="489.5" width="12.2" height="24.65" shape-rendering="crispEdges"/><rect fill="#003054" x="1073.6" y="489.5" width="24.4" height="24.65" shape-rendering="crispEdges"/><rect fill="#121212" x="0" y="513.9" width="12.2" height="24.65" shape-rendering="crispEdges"/><rect fill="#121212" x="12.2" y="513.9" width="12.2" height="24.65" shape-rendering="crispEdges"/><rect fill="#121212" x="24.4" y="513.9" width="36.6" height="24.65" shape-rendering="crispEdges"/><rect fill="#121212" x="61" y="513.9" width="12.2" height="24.65" shape-rendering="crispEdges"/><rect fill="#121212" x="73.2" y="513.9" width="463.6" height="24.65" shape-rendering="crispEdges"/><rect fill="#121212" x="536.8" y="513.9" width="292.8" height="24.65" shape-rendering="crispEdges"/><rect fill="#121212" x="829.6" y="513.9" width="48.8" height="24.65" shape-rendering="crispEdges"/><rect fill="#121212" x="878.4" y="513.9" width="158.6" height="24.65" shape-rendering="crispEdges"/><rect fill="#121212" x="1037" y="513.9" width="12.2" height="24.65" shape-rendering="crispEdges"/><rect fill="#121212" x="1049.2" y="513.9" width="12.2" height="24.65" shape-rendering="crispEdges"/><rect fill="#121212" x="1061.4" y="513.9" width="12.2" height="24.65" shape-rendering="crispEdges"/><rect fill="#003054" x="1073.6" y="513.9" width="24.4" height="24.65" shape-rendering="crispEdges"/><rect fill="#121212" x="0" y="538.3" width="12.2" height="24.65" shape-rendering="crispEdges"/><rect fill="#121212" x="12.2" y="538.3" width="12.2" height="24.65" shape-rendering="crispEdges"/><rect fill="#121212" x="24.4" y="538.3" width="0" height="24.65" shape-rendering="crispEdges"/><rect fill="#121212" x="24.4" y="538.3" width="48.8" height="24.65" shape-rendering="crispEdges"/><rect fill="#121212" x="73.2" y="538.3" width="48.8" height="24.65" shape-rendering="crispEdges"/><rect fill="#121212" x="122" y="538.3" width="24.4" height="24.65" shape-rendering="crispEdges"/><rect fill="#121212" x="146.4" y="538.3" width="12.2" height="24.65" shape-rendering="crispEdges"/><rect fill="#121212" x="158.6" y="538.3" width="170.8" height="24.65" shape-rendering="crispEdges"/><rect fill="#121212" x="329.4" y="538.3" width="719.8" height="24.65" shape-rendering="crispEdges"/><rect fill="#121212" x="1049.2" y="538.3" width="12.2" height="24.65" shape-rendering="crispEdges"/><rect fill="#121212" x="1061.4" y="538.3" width="12.2" height="24.65" shape-rendering="crispEdges"/><rect fill="#003054" x="1073.6" y="538.3" width="24.4" height="24.65" shape-rendering="crispEdges"/><rect fill="#121212" x="0" y="562.7" width="12.2" height="24.65" shape-rendering="crispEdges"/><rect fill="#121212" x="12.2" y="562.7" width="12.2" height="24.65" shape-rendering="crispEdges"/><rect fill="#121212" x="24.4" y="562.7" width="0" height="24.65" shape-rendering="crispEdges"/><rect fill="#121212" x="24.4" y="562.7" width="48.8" height="24.65" shape-rendering="crispEdges"/><rect fill="#121212" x="73.2" y="562.7" width="36.6" height="24.65" shape-rendering="crispEdges"/><rect fill="#121212" x="109.8" y="562.7" width="36.6" height="24.65" shape-rendering="crispEdges"/><rect fill="#121212" x="146.4" y="562.7" width="12.2" height="24.65" shape-rendering="crispEdges"/><rect fill="#121212" x="158.6" y="562.7" width="890.6" height="24.65" shape-rendering="crispEdges"/><rect fill="#121212" x="1049.2" y="562.7" width="12.2" height="24.65" shape-rendering="crispEdges"/><rect fill="#121212" x="1061.4" y="562.7" width="12.2" height="24.65" shape-rendering="crispEdges"/><rect fill="#003054" x="1073.6" y="562.7" width="24.4" height="24.65" shape-rendering="crispEdges"/><rect fill="#121212" x="0" y="587.1" width="12.2" height="24.65" shape-rendering="crispEdges"/><rect fill="#121212" x="12.2" y="587.1" width="1049.2" height="24.65" shape-rendering="crispEdges"/><rect fill="#121212" x="1061.4" y="587.1" width="12.2" height="24.65" shape-rendering="crispEdges"/><rect fill="#003054" x="1073.6" y="587.1" width="24.4" height="24.65" shape-rendering="crispEdges"/><rect fill="#121212" x="0" y="611.5" width="12.2" height="24.65" shape-rendering="crispEdges"/><rect fill="#121212" x="12.2" y="611.5" width="12.2" height="24.65" shape-rendering="crispEdges"/><rect fill="#121212" x="24.4" y="611.5" width="36.6" height="24.65" shape-rendering="crispEdges"/><rect fill="#121212" x="61" y="611.5" width="12.2" height="24.65" shape-rendering="crispEdges"/><rect fill="#121212" x="73.2" y="611.5" width="756.4" height="24.65" shape-rendering="crispEdges"/><rect fill="#121212" x="829.6" y="611.5" width="48.8" height="24.65" shape-rendering="crispEdges"/><rect fill="#121212" x="878.4" y="611.5" width="158.6" height="24.65" shape-rendering="crispEdges"/><rect fill="#121212" x="1037" y="611.5" width="12.2" height="24.65" shape-rendering="crispEdges"/><rect fill="#121212" x="1049.2" y="611.5" width="12.2" height="24.65" shape-rendering="crispEdges"/><rect fill="#121212" x="1061.4" y="611.5" width="12.2" height="24.65" shape-rendering="crispEdges"/><rect fill="#003054" x="1073.6" y="611.5" width="24.4" height="24.65" shape-rendering="crispEdges"/><rect fill="#121212" x="0" y="635.9" width="12.2" height="24.65" shape-rendering="crispEdges"/><rect fill="#121212" x="12.2" y="635.9" width="12.2" height="24.65" shape-rendering="crispEdges"/><rect fill="#121212" x="24.4" y="635.9" width="0" height="24.65" shape-rendering="crispEdges"/><rect fill="#121212" x="24.4" y="635.9" width="48.8" height="24.65" shape-rendering="crispEdges"/><rect fill="#121212" x="73.2" y="635.9" width="36.6" height="24.65" shape-rendering="crispEdges"/><rect fill="#121212" x="109.8" y="635.9" width="36.6" height="24.65" shape-rendering="crispEdges"/><rect fill="#121212" x="146.4" y="635.9" width="12.2" height="24.65" shape-rendering="crispEdges"/><rect fill="#121212" x="158.6" y="635.9" width="195.2" height="24.65" shape-rendering="crispEdges"/><rect fill="#121212" x="353.8" y="635.9" width="695.4" height="24.65" shape-rendering="crispEdges"/><rect fill="#121212" x="1049.2" y="635.9" width="12.2" height="24.65" shape-rendering="crispEdges"/><rect fill="#121212" x="1061.4" y="635.9" width="12.2" height="24.65" shape-rendering="crispEdges"/><rect fill="#003054" x="1073.6" y="635.9" width="24.4" height="24.65" shape-rendering="crispEdges"/><rect fill="#121212" x="0" y="660.3" width="12.2" height="24.65" shape-rendering="crispEdges"/><rect fill="#121212" x="12.2" y="660.3" width="12.2" height="24.65" shape-rendering="crispEdges"/><rect fill="#121212" x="24.4" y="660.3" width="0" height="24.65" shape-rendering="crispEdges"/><rect fill="#121212" x="24.4" y="660.3" width="48.8" height="24.65" shape-rendering="crispEdges"/><rect fill="#121212" x="73.2" y="660.3" width="36.6" height="24.65" shape-rendering="crispEdges"/><rect fill="#121212" x="109.8" y="660.3" width="36.6" height="24.65" shape-rendering="crispEdges"/><rect fill="#121212" x="146.4" y="660.3" width="12.2" height="24.65" shape-rendering="crispEdges"/><rect fill="#121212" x="158.6" y="660.3" width="183" height="24.65" shape-rendering="crispEdges"/><rect fill="#121212" x="341.6" y="660.3" width="707.6" height="24.65" shape-rendering="crispEdges"/><rect fill="#121212" x="1049.2" y="660.3" width="12.2" height="24.65" shape-rendering="crispEdges"/><rect fill="#121212" x="1061.4" y="660.3" width="12.2" height="24.65" shape-rendering="crispEdges"/><rect fill="#000000" x="1073.6" y="660.3" width="24.4" height="24.65" shape-rendering="crispEdges"/><rect fill="#121212" x="0" y="684.7" width="12.2" height="24.65" shape-rendering="crispEdges"/><rect fill="#121212" x="12.2" y="684.7" width="1049.2" height="24.65" shape-rendering="crispEdges"/><rect fill="#121212" x="1061.4" y="684.7" width="12.2" height="24.65" shape-rendering="crispEdges"/><rect fill="#000000" x="1073.6" y="684.7" width="24.4" height="24.65" shape-rendering="crispEdges"/><rect fill="#1e1e1e" x="0" y="709.1" width="12.2" height="24.65" shape-rendering="crispEdges"/><rect fill="#1e1e1e" x="12.2" y="709.1" width="12.2" height="24.65" shape-rendering="crispEdges"/><rect fill="#1e1e1e" x="24.4" y="709.1" width="48.8" height="24.65" shape-rendering="crispEdges"/><rect fill="#1e1e1e" x="73.2" y="709.1" width="695.4" height="24.65" shape-rendering="crispEdges"/><rect fill="#1e1e1e" x="768.6" y="709.1" width="61" height="24.65" shape-rendering="crispEdges"/><rect fill="#1e1e1e" x="829.6" y="709.1" width="48.8" height="24.65" shape-rendering="crispEdges"/><rect fill="#1e1e1e" x="878.4" y="709.1" width="170.8" height="24.65" shape-rendering="crispEdges"/><rect fill="#1e1e1e" x="1049.2" y="709.1" width="12.2" height="24.65" shape-rendering="crispEdges"/><rect fill="#1e1e1e" x="1061.4" y="709.1" width="12.2" height="24.65" shape-rendering="crispEdges"/><rect fill="#000000" x="1073.6" y="709.1" width="24.4" height="24.65" shape-rendering="crispEdges"/>
    <g class="terminal-1442801577-matrix">
    <text class="terminal-1442801577-r2" x="12.2" y="20" textLength="366" clip-path="url(#terminal-1442801577-line-0)">CricLive&#160;-&#160;Live&#160;Cricket&#160;Scores</text><text class="terminal-1442801577-r1" x="1098" y="20" textLength="12.2" clip-path="url(#terminal-1442801577-line-0)">
</text><text class="terminal-1442801577-r4" x="24.4" y="44.4" textLength="36.6" clip-path="url(#terminal-1442801577-line-1)">&#160;1.</text><text class="terminal-1442801577-r5" x="73.2" y="44.4" textLength="524.6" clip-path="url(#terminal-1442801577-line-1)">Pakistan&#160;Super&#160;League&#160;2026&#160;-&#160;1st&#160;Match&#160;&#160;T20</text><text class="terminal-1442801577-r4" x="829.6" y="44.4" textLength="48.8" clip-path="url(#terminal-1442801577-line-1)">Mar&#160;</text><text class="terminal-1442801577-r4" x="878.4" y="44.4" textLength="158.6" clip-path="url(#terminal-1442801577-line-1)">26,&#160;14:00&#160;GMT</text><text class="terminal-1442801577-r1" x="1098" y="44.4" textLength="12.2" clip-path="url(#terminal-1442801577-line-1)">
</text><text class="terminal-1442801577-r6" x="73.2" y="68.8" textLength="36.6" clip-path="url(#terminal-1442801577-line-2)">LHQ</text><text class="terminal-1442801577-r1" x="1098" y="68.8" textLength="12.2" clip-path="url(#terminal-1442801577-line-2)">
</text><text class="terminal-1442801577-r6" x="73.2" y="93.2" textLength="48.8" clip-path="url(#terminal-1442801577-line-3)">HYDK</text><text class="terminal-1442801577-r1" x="1098" y="93.2" textLength="12.2" clip-path="url(#terminal-1442801577-line-3)">
</text><text class="terminal-1442801577-r7" x="12.2" y="117.6" textLength="1049.2" clip-path="url(#terminal-1442801577-line-4)">──────────────────────────────────────────────────────────────────────────────────────</text><text class="terminal-1442801577-r1" x="1098" y="117.6" textLength="12.2" clip-path="url(#terminal-1442801577-line-4)">
</text><text class="terminal-1442801577-r4" x="24.4" y="142" textLength="36.6" clip-path="url(#terminal-1442801577-line-5)">&#160;2.</text><text class="terminal-1442801577-r5" x="73.2" y="142" textLength="658.8" clip-path="url(#terminal-1442801577-line-5)">South&#160;Africa&#160;tour&#160;of&#160;New&#160;Zealand,&#160;2026&#160;-&#160;5th&#160;T20I&#160;&#160;T20</text><text class="terminal-1442801577-r4" x="829.6" y="142" textLength="48.8" clip-path="url(#terminal-1442801577-line-5)">Mar&#160;</text><text class="terminal-1442801577-r4" x="878.4" y="142" textLength="158.6" clip-path="url(#terminal-1442801577-line-5)">25,&#160;06:15&#160;GMT</text><text class="terminal-1442801577-r1" x="1098" y="142" textLength="12.2" clip-path="url(#terminal-1442801577-line-5)">
</text><text class="terminal-1442801577-r6" x="73.2" y="166.4" textLength="36.6" clip-path="url(#terminal-1442801577-line-6)">RSA</text><text class="terminal-1442801577-r8" x="158.6" y="166.4" textLength="183" clip-path="url(#terminal-1442801577-line-6)">187/4&#160;(19.6&#160;ov)</text><text class="terminal-1442801577-r1" x="1098" y="166.4" textLength="12.2" clip-path="url(#terminal-1442801577-line-6)">
</text><text class="terminal-1442801577-r6" x="73.2" y="190.8" textLength="24.4" clip-path="url(#terminal-1442801577-line-7)">NZ</text><text class="terminal-1442801577-r8" x="158.6" y="190.8" textLength="183" clip-path="url(#terminal-1442801577-line-7)">154/8&#160;(19.6&#160;ov)</text><text class="terminal-1442801577-r1" x="1098" y="190.8" textLength="12.2" clip-path="url(#terminal-1442801577-line-7)">
</text><text class="terminal-1442801577-r1" x="1098" y="215.2" textLength="12.2" clip-path="url(#terminal-1442801577-line-8)">
</text><text class="terminal-1442801577-r6" x="73.2" y="239.6" textLength="146.4" clip-path="url(#terminal-1442801577-line-9)">South&#160;Africa</text><text class="terminal-1442801577-r8" x="317.2" y="239.6" textLength="183" clip-path="url(#terminal-1442801577-line-9)">187/4&#160;(19.6&#160;ov)</text><text class="terminal-1442801577-r1" x="1098" y="239.6" textLength="12.2" clip-path="url(#terminal-1442801577-line-9)">
</text><text class="terminal-1442801577-r6" x="73.2" y="264" textLength="134.2" clip-path="url(#terminal-1442801577-line-10)">New&#160;Zealand</text><text class="terminal-1442801577-r8" x="317.2" y="264" textLength="183" clip-path="url(#terminal-1442801577-line-10)">154/8&#160;(19.6&#160;ov)</text><text class="terminal-1442801577-r1" x="1098" y="264" textLength="12.2" clip-path="url(#terminal-1442801577-line-10)">
</text><text class="terminal-1442801577-r1" x="1098" y="288.4" textLength="12.2" clip-path="url(#terminal-1442801577-line-11)">
</text><text class="terminal-1442801577-r9" x="73.2" y="312.8" textLength="463.6" clip-path="url(#terminal-1442801577-line-12)">Status&#160;&#160;&#160;&#160;&#160;South&#160;Africa&#160;won&#160;by&#160;33&#160;runs</text><text class="terminal-1442801577-r1" x="1098" y="312.8" textLength="12.2" clip-path="url(#terminal-1442801577-line-12)">
</text><text class="terminal-1442801577-r9" x="73.2" y="337.2" textLength="439.2" clip-path="url(#terminal-1442801577-line-13)">Venue&#160;&#160;&#160;&#160;&#160;&#160;Hagley&#160;Oval,&#160;Christchurch</text><text class="terminal-1442801577-r1" x="1098" y="337.2" textLength="12.2" clip-path="url(#terminal-1442801577-line-13)">
</text><text class="terminal-1442801577-r9" x="73.2" y="361.6" textLength="341.6" clip-path="url(#terminal-1442801577-line-14)">Date&#160;&#160;&#160;&#160;&#160;&#160;&#160;Mar&#160;25,&#160;06:15&#160;GMT</text><text class="terminal-1442801577-r1" x="1098" y="361.6" textLength="12.2" clip-path="url(#terminal-1442801577-line-14)">
</text><text class="terminal-1442801577-r1" x="1098" y="386" textLength="12.2" clip-path="url(#terminal-1442801577-line-15)">
</text><text class="terminal-1442801577-r7" x="12.2" y="410.4" textLength="1049.2" clip-path="url(#terminal-1442801577-line-16)">──────────────────────────────────────────────────────────────────────────────────────</text><text class="terminal-1442801577-r1" x="1098" y="410.4" textLength="12.2" clip-path="url(#terminal-1442801577-line-16)">
</text><text class="terminal-1442801577-r4" x="24.4" y="434.8" textLength="36.6" clip-path="url(#terminal-1442801577-line-17)">&#160;3.</text><text class="terminal-1442801577-r5" x="73.2" y="434.8" textLength="573.4" clip-path="url(#terminal-1442801577-line-17)">Legends&#160;League&#160;Cricket&#160;2026&#160;-&#160;Semi&#160;Final&#160;1&#160;&#160;T20</text><text class="terminal-1442801577-r4" x="829.6" y="434.8" textLength="48.8" clip-path="url(#terminal-1442801577-line-17)">Mar&#160;</text><text class="terminal-1442801577-r4" x="878.4" y="434.8" textLength="158.6" clip-path="url(#terminal-1442801577-line-17)">26,&#160;09:00&#160;GMT</text><text class="terminal-1442801577-r1" x="1098" y="434.8" textLength="12.2" clip-path="url(#terminal-1442801577-line-17)">
</text><text class="terminal-1442801577-r6" x="73.2" y="459.2" textLength="48.8" clip-path="url(#terminal-1442801577-line-18)">INDT</text><text class="terminal-1442801577-r1" x="1098" y="459.2" textLength="12.2" clip-path="url(#terminal-1442801577-line-18)">
</text><text class="terminal-1442801577-r6" x="73.2" y="483.6" textLength="48.8" clip-path="url(#terminal-1442801577-line-19)">KNSO</text><text class="terminal-1442801577-r1" x="1098" y="483.6" textLength="12.2" clip-path="url(#terminal-1442801577-line-19)">
</text><text class="terminal-1442801577-r7" x="12.2" y="508" textLength="1049.2" clip-path="url(#terminal-1442801577-line-20)">──────────────────────────────────────────────────────────────────────────────────────</text><text class="terminal-1442801577-r1" x="1098" y="508" textLength="12.2" clip-path="url(#terminal-1442801577-line-20)">
</text><text class="terminal-1442801577-r4" x="24.4" y="532.4" textLength="36.6" clip-path="url(#terminal-1442801577-line-21)">&#160;4.</text><text class="terminal-1442801577-r5" x="73.2" y="532.4" textLength="463.6" clip-path="url(#terminal-1442801577-line-21)">Sheffield&#160;Shield&#160;2025-26&#160;-&#160;Final&#160;&#160;TEST</text><text class="terminal-1442801577-r4" x="829.6" y="532.4" textLength="48.8" clip-path="url(#terminal-1442801577-line-21)">Mar&#160;</text><text class="terminal-1442801577-r4" x="878.4" y="532.4" textLength="158.6" clip-path="url(#terminal-1442801577-line-21)">25,&#160;23:30&#160;GMT</text><text class="terminal-1442801577-r1" x="1098" y="532.4" textLength="12.2" clip-path="url(#terminal-1442801577-line-21)">
</text><text class="terminal-1442801577-r6" x="73.2" y="556.8" textLength="48.8" clip-path="url(#terminal-1442801577-line-22)">SAUS</text><text class="terminal-1442801577-r8" x="158.6" y="556.8" textLength="170.8" clip-path="url(#terminal-1442801577-line-22)">55/3&#160;(27.6&#160;ov)</text><text class="terminal-1442801577-r1" x="1098" y="556.8" textLength="12.2" clip-path="url(#terminal-1442801577-line-22)">
</text><text class="terminal-1442801577-r6" x="73.2" y="581.2" textLength="36.6" clip-path="url(#terminal-1442801577-line-23)">VIC</text><text class="terminal-1442801577-r1" x="1098" y="581.2" textLength="12.2" clip-path="url(#terminal-1442801577-line-23)">
</text><text class="terminal-1442801577-r7" x="12.2" y="605.6" textLength="1049.2" clip-path="url(#terminal-1442801577-line-24)">──────────────────────────────────────────────────────────────────────────────────────</text><text class="terminal-1442801577-r1" x="1098" y="605.6" textLength="12.2" clip-path="url(#terminal-1442801577-line-24)">
</text><text class="terminal-1442801577-r4" x="24.4" y="630" textLength="36.6" clip-path="url(#terminal-1442801577-line-25)">&#160;5.</text><text class="terminal-1442801577-r5" x="73.2" y="630" textLength="756.4" clip-path="url(#terminal-1442801577-line-25)">CSA&#160;Provincial&#160;One-Day&#160;Challenge&#160;Division&#160;One&#160;2026&#160;-&#160;Qualifier</text><text class="terminal-1442801577-r4" x="829.6" y="630" textLength="48.8" clip-path="url(#terminal-1442801577-line-25)">Mar&#160;</text><text class="terminal-1442801577-r4" x="878.4" y="630" textLength="158.6" clip-path="url(#terminal-1442801577-line-25)">25,&#160;11:00&#160;GMT</text><text class="terminal-1442801577-r1" x="1098" y="630" textLength="12.2" clip-path="url(#terminal-1442801577-line-25)">
</text><text class="terminal-1442801577-r6" x="73.2" y="654.4" textLength="36.6" clip-path="url(#terminal-1442801577-line-26)">WAR</text><text class="terminal-1442801577-r8" x="158.6" y="654.4" textLength="195.2" clip-path="url(#terminal-1442801577-line-26)">204/10&#160;(49.3&#160;ov)</text><text class="terminal-1442801577-r10" x="1073.6" y="654.4" textLength="24.4" clip-path="url(#terminal-1442801577-line-26)">▄▄</text><text class="terminal-1442801577-r1" x="1098" y="654.4" textLength="12.2" clip-path="url(#terminal-1442801577-line-26)">
</text><text class="terminal-1442801577-r6" x="73.2" y="678.8" textLength="36.6" clip-path="url(#terminal-1442801577-line-27)">TIT</text><text class="terminal-1442801577-r8" x="158.6" y="678.8" textLength="183" clip-path="url(#terminal-1442801577-line-27)">209/6&#160;(43.1&#160;ov)</text><text class="terminal-1442801577-r1" x="1098" y="678.8" textLength="12.2" clip-path="url(#terminal-1442801577-line-27)">
</text><text class="terminal-1442801577-r7" x="12.2" y="703.2" textLength="1049.2" clip-path="url(#terminal-1442801577-line-28)">──────────────────────────────────────────────────────────────────────────────────────</text><text class="terminal-1442801577-r1" x="1098" y="703.2" textLength="12.2" clip-path="url(#terminal-1442801577-line-28)">
</text><text class="terminal-1442801577-r11" x="24.4" y="727.6" textLength="48.8" clip-path="url(#terminal-1442801577-line-29)">Tip:</text><text class="terminal-1442801577-r11" x="73.2" y="727.6" textLength="695.4" clip-path="url(#terminal-1442801577-line-29)">&#160;Press&#160;/&#160;to&#160;search,&#160;Esc&#160;to&#160;clear,&#160;r&#160;to&#160;refresh,&#160;q&#160;to&#160;quit</text>
    </g>
    </g>
</svg>
